<svg version="1.1" id="Icons_1_" xmlns="http://www.w3.org/2000/svg" xmlns:xlink="http://www.w3.org/1999/xlink" x="0px" y="0px"
	 width="130px" height="150px" viewBox="0 0 130 150" enable-background="new 0 0 130 150" xml:space="preserve">
<polyline id="home-icon-inner" fill="#409AFF" points="48.704,144.009 48.704,104.496 81.85,104.496 81.85,144.009 125.003,144.009 124.997,60.534
	65,4.009 5.003,60.534 5.003,144.009 "/>
<g id="home-icon-outer">
	<g>
		<path fill="#409AFF" d="M126.648,54.705L73.088,3.12c-4.32-4.161-11.854-4.161-16.174,0L3.352,54.705
			C1.192,56.784,0,59.552,0,62.493v81.247c0,3.45,2.916,6.259,6.499,6.259h39.003c3.583,0,6.497-2.809,6.497-6.259v-37.564h26.003
			v37.564c0,3.45,2.914,6.259,6.499,6.259h39.001c3.583,0,6.497-2.809,6.497-6.259V62.493C130,59.552,128.81,56.784,126.648,54.705z
			 M84.501,143.74v-37.564c0-3.449-2.916-6.255-6.499-6.255H52c-3.581,0-6.497,2.807-6.497,6.255v37.564H6.499V62.493
			c0-1.266,0.519-2.463,1.448-3.363L61.511,7.547c1.861-1.799,5.122-1.799,6.98,0l53.562,51.583c0.936,0.899,1.45,2.097,1.45,3.363
			l0.004,81.247H84.501z"/>
	</g>
</g>
</svg>
