<?xml version="1.0" encoding="utf-8"?>
<!-- Generator: Adobe Illustrator 16.0.0, SVG Export Plug-In . SVG Version: 6.00 Build 0)  -->
<!DOCTYPE svg PUBLIC "-//W3C//DTD SVG 1.1//EN" "http://www.w3.org/Graphics/SVG/1.1/DTD/svg11.dtd">
<svg version="1.1" id="Forma_1_1_" xmlns="http://www.w3.org/2000/svg" xmlns:xlink="http://www.w3.org/1999/xlink" x="0px" y="0px"
	 width="458.529px" height="506.015px" viewBox="0 0 458.529 506.015" enable-background="new 0 0 458.529 506.015"
	 xml:space="preserve">
<g id="submit-arrow-outer">
	<g>
		<path fill="#2D63EA" d="M451.029,242.901L18.248,2.394C13.252-0.431,8.957-0.755,5.373,1.417S0,7.499,0,13.151v479.711
			c0,5.652,1.789,9.559,5.373,11.734c3.584,2.172,7.879,1.852,12.875-0.98l432.781-240.504c5-2.828,7.5-6.203,7.5-10.109
			C458.529,249.093,456.029,245.726,451.029,242.901z"/>
	</g>
</g>
<g id="submit-arrow-inner">
	<g>
		<path fill="#FFFFFF" d="M421.71,243.912L32.206,27.455c-4.496-2.542-8.362-2.833-11.587-0.879s-4.835,5.474-4.835,10.561v431.739
			c0,5.088,1.61,8.604,4.835,10.563c3.226,1.953,7.091,1.666,11.587-0.883L421.71,262.103c4.5-2.547,6.75-5.584,6.75-9.1
			C428.46,249.484,426.21,246.454,421.71,243.912z"/>
	</g>
</g>
</svg>
